Coordinates
version=1
nRows=43
nColumns=12
inDegrees=yes

Units are S.I. units (second, meters, Newtons, ...)
Angles are in degrees

endheader
time	SC_y	SC_z	SC_x	AC_y	AC_z	AC_x	GH_y	GH_z	GH_yy	EL_x	PS_y
       0.0              -42.48          8.756          60.44          64.67         -2.577          1.845          141.7          8.379          -96.1          94.85          145.9
   0.03587              -42.48          8.759          60.43          64.67         -2.579          1.843          141.7          8.377         -96.08          94.86          145.9
   0.07175              -42.48          8.763          60.42          64.67         -2.582          1.841          141.6          8.375         -96.05          94.86          145.9
    0.1076              -42.48          8.767          60.41          64.67         -2.585          1.838          141.6          8.373         -96.02          94.87          145.8
    0.1435              -42.48          8.771           60.4          64.67         -2.588          1.836          141.6           8.37         -95.99          94.87          145.8
    0.1794              -42.48          8.775          60.39          64.67         -2.591          1.834          141.5          8.367         -95.95          94.88          145.8
    0.2152              -42.49           8.78          60.38          64.68         -2.595          1.831          141.5          8.365         -95.92          94.88          145.8
    0.2511              -42.49          8.785          60.37          64.68         -2.598          1.828          141.5          8.362         -95.88          94.89          145.7
     0.287              -42.49           8.79          60.36          64.68         -2.602          1.825          141.4          8.358         -95.84           94.9          145.7
    0.3229              -42.49          8.796          60.35          64.68         -2.607          1.822          141.4          8.355         -95.79          94.91          145.7
    0.3587              -42.49          8.802          60.33          64.68         -2.611          1.819          141.3          8.351         -95.75          94.92          145.6
    0.3946              -42.49          8.809          60.32          64.68         -2.616          1.815          141.3          8.347         -95.69          94.93          145.6
    0.4305              -42.49          8.816           60.3          64.68         -2.622          1.811          141.2          8.343         -95.64          94.94          145.6
    0.4664              -42.49          8.824          60.28          64.68         -2.627          1.807          141.2          8.338         -95.58          94.95          145.5
    0.5022               -42.5          8.832          60.27          64.68         -2.633          1.802          141.1          8.333         -95.52          94.96          145.5
    0.5381               -42.5          8.841          60.25          64.69          -2.64          1.797          141.1          8.328         -95.45          94.97          145.4
     0.574               -42.5          8.851          60.22          64.69         -2.648          1.791          141.0          8.322         -95.37          94.99          145.3
    0.6099               -42.5          8.862           60.2          64.69         -2.656          1.785          140.9          8.315         -95.29           95.0          145.3
    0.6457               -42.5          8.874          60.17          64.69         -2.664          1.779          140.8          8.308          -95.2          95.02          145.2
    0.6816              -42.51          8.887          60.14          64.69         -2.674          1.772          140.7            8.3          -95.1          95.04          145.1
    0.7175              -42.51          8.901          60.11           64.7         -2.684          1.764          140.6          8.292         -94.99          95.06          145.0
    0.7534              -42.51          8.916          60.08           64.7         -2.696          1.755          140.5          8.282         -94.87          95.08          145.0
    0.7892              -42.52          8.934          60.04           64.7         -2.708          1.745          140.4          8.272         -94.74          95.11          144.9
    0.8251              -42.52          8.953           60.0          64.71         -2.723          1.735          140.3          8.261         -94.59          95.13          144.7
     0.861              -42.52          8.974          59.95          64.71         -2.738          1.723          140.1          8.248         -94.43          95.16          144.6
    0.8969              -42.53          8.997           59.9          64.71         -2.756           1.71          139.9          8.234         -94.25           95.2          144.5
    0.9327              -42.53          9.024          59.84          64.72         -2.775          1.695          139.8          8.218         -94.05          95.24          144.3
    0.9686              -42.54          9.054          59.77          64.72         -2.797          1.678          139.5            8.2         -93.82          95.28          144.1
     1.004              -42.55          9.087           59.7          64.73         -2.822          1.659          139.3          8.179         -93.56          95.33          143.9
      1.04              -42.55          9.126          59.61          64.74          -2.85          1.638          139.0          8.156         -93.27          95.38          143.7
     1.076              -42.56          9.169          59.51          64.74         -2.883          1.614          138.7           8.13         -92.93          95.45          143.4
     1.112              -42.57          9.219           59.4          64.75          -2.92          1.586          138.4            8.1         -92.55          95.52          143.2
     1.148              -42.58          9.277          59.27          64.76         -2.963          1.554          138.0          8.065         -92.11           95.6          142.8
     1.184               -42.6          9.344          59.12          64.78         -3.012          1.516          137.5          8.025         -91.59           95.7          142.4
      1.22              -42.61          9.423          58.95          64.79          -3.07          1.472          136.9          7.977         -90.99          95.81          141.9
     1.256              -42.63          9.515          58.74          64.81         -3.139          1.421          136.2          7.922         -90.28          95.94          141.4
     1.291              -42.65          9.625          58.49          64.82          -3.22          1.359          135.5          7.855         -89.44           96.1          140.7
     1.327              -42.68          9.757           58.2          64.85         -3.318          1.285          134.5          7.776         -88.42          96.29          139.9
     1.363              -42.71          9.917          57.84          64.88         -3.436          1.196          133.4           7.68          -87.2          96.52          139.0
     1.399              -42.75          10.11          57.41          64.91          -3.58          1.087          132.0          7.562         -85.71           96.8          137.8
     1.435              -42.79          10.35          56.87          64.95         -3.758         0.9532          130.3          7.417         -83.86          97.15          136.4
     1.471              -42.85          10.65           56.2          65.01          -3.98         0.7856          128.1          7.236         -81.56          97.58          134.6
     1.507              -42.93          11.03          55.36          65.07          -4.26         0.5746          125.4          7.009         -78.66          98.12          132.4
